<svg xmlns="http://www.w3.org/2000/svg" width="80.463" height="28.132" viewBox="0 0 80.463 28.132">
  <path id="Tracciato_14" data-name="Tracciato 14" d="M274.9,366.913a14,14,0,0,0-8.722,3.03,14.066,14.066,0,0,0-17.443,0,14.067,14.067,0,0,0-17.444,0,14.066,14.066,0,1,0,0,22.072,14.067,14.067,0,0,0,17.444,0,14.066,14.066,0,0,0,17.443,0,14.066,14.066,0,1,0,8.722-25.1Zm-45.91,22.8a10.844,10.844,0,1,1,0-17.476,14.066,14.066,0,0,0,0,17.476Zm2.3-2.3a10.844,10.844,0,0,1,0-12.886,10.84,10.84,0,0,1,0,12.886Zm15.142,2.3a10.853,10.853,0,0,1-12.841,0,14.066,14.066,0,0,0,0-17.476,10.853,10.853,0,0,1,12.841,0,14.068,14.068,0,0,0,0,17.476Zm2.3-2.3a10.842,10.842,0,0,1,0-12.886,10.842,10.842,0,0,1,0,12.886Zm15.142,2.3a10.852,10.852,0,0,1-12.84,0,14.068,14.068,0,0,0,0-17.476,10.852,10.852,0,0,1,12.84,0,14.068,14.068,0,0,0,0,17.476Zm2.3-2.3a10.842,10.842,0,0,1,0-12.886,10.842,10.842,0,0,1,0,12.886Zm8.722,4.4a10.917,10.917,0,0,1-6.42-2.106,14.066,14.066,0,0,0,0-17.476,10.844,10.844,0,1,1,6.42,19.582Z" transform="translate(-208.504 -366.913)" fill="#161615" fill-rule="evenodd"/>
</svg>
