<svg id="Raggruppa_12678" data-name="Raggruppa 12678" xmlns="http://www.w3.org/2000/svg" width="26.634" height="21.64" viewBox="0 0 26.634 21.64">
  <g id="Raggruppa_12095" data-name="Raggruppa 12095">
    <path id="Tracciato_23730" data-name="Tracciato 23730" d="M1472,51.342a11.383,11.383,0,0,1-3.146.862,5.429,5.429,0,0,0,2.4-3.018,10.911,10.911,0,0,1-3.462,1.322,5.46,5.46,0,0,0-9.445,3.734,5.632,5.632,0,0,0,.126,1.245,15.455,15.455,0,0,1-11.254-5.711,5.462,5.462,0,0,0,1.678,7.3,5.392,5.392,0,0,1-2.467-.673v.06a5.485,5.485,0,0,0,4.375,5.365,5.449,5.449,0,0,1-1.432.18,4.827,4.827,0,0,1-1.034-.093,5.512,5.512,0,0,0,5.1,3.8,10.972,10.972,0,0,1-6.77,2.329,10.228,10.228,0,0,1-1.307-.075,15.541,15.541,0,0,0,23.917-13.087c0-.241-.008-.474-.02-.706A10.89,10.89,0,0,0,1472,51.342Z" transform="translate(-1445.37 -48.78)" fill="#b2b2b2"/>
  </g>
</svg>
