<?xml version="1.0" encoding="utf-8"?>
<!-- Generator: Adobe Illustrator 25.1.0, SVG Export Plug-In . SVG Version: 6.00 Build 0)  -->
<svg version="1.1" id="Livello_1" xmlns="http://www.w3.org/2000/svg" xmlns:xlink="http://www.w3.org/1999/xlink" x="0px" y="0px"
	 viewBox="0 0 23 23" style="enable-background:new 0 0 23 23;" xml:space="preserve">
<g id="Tracciato_24164">
	<path d="M11.5,23C5.2,23,0,17.8,0,11.5C0,5.2,5.2,0,11.5,0C17.8,0,23,5.2,23,11.5C23,17.8,17.8,23,11.5,23z M11.5,1
		C5.7,1,1,5.7,1,11.5C1,17.3,5.7,22,11.5,22C17.3,22,22,17.3,22,11.5C22,5.7,17.3,1,11.5,1z M12,17h-1v-7h1V17z M12,8h-1V6h1V8z"/>
</g>
</svg>
