<svg xmlns="http://www.w3.org/2000/svg" width="25" height="25" viewBox="0 0 25 25">
  <path id="Tracciato_24138" data-name="Tracciato 24138" d="M18.5,12.081A6.419,6.419,0,1,0,24.919,18.5,6.418,6.418,0,0,0,18.5,12.081Zm0,10.586A4.167,4.167,0,1,1,22.667,18.5,4.166,4.166,0,0,1,18.5,22.667Zm6.673-12.341a1.5,1.5,0,1,0,1.5,1.5A1.5,1.5,0,0,0,25.173,10.326Zm5.753,3.019a9.178,9.178,0,0,0-.581-3.034,6.389,6.389,0,0,0-3.657-3.657,9.178,9.178,0,0,0-3.034-.581c-1.123-.052-1.6-.069-3.752-.073H17.1c-2.15,0-2.629.021-3.752.073a9.178,9.178,0,0,0-3.034.581,6.389,6.389,0,0,0-3.657,3.657,9.178,9.178,0,0,0-.581,3.034c-.05,1.123-.069,1.6-.073,3.752v2.8c0,2.15.023,2.629.073,3.752a9.178,9.178,0,0,0,.581,3.034,6.389,6.389,0,0,0,3.657,3.657,9.178,9.178,0,0,0,3.034.581c1.333.06,1.758.075,5.155.075s3.821-.015,5.155-.075a9.178,9.178,0,0,0,3.034-.581,6.389,6.389,0,0,0,3.657-3.657,9.178,9.178,0,0,0,.581-3.034c.06-1.333.075-1.761.075-5.155S30.986,14.679,30.926,13.345Zm-2.179,6.532c0,2.109-.021,2.565-.071,3.673a6.891,6.891,0,0,1-.431,2.323,4.136,4.136,0,0,1-2.371,2.371,6.891,6.891,0,0,1-2.323.431c-1.108.05-1.565.067-3.673.071H17.123c-2.109,0-2.565-.021-3.675-.071a6.888,6.888,0,0,1-2.321-.431,4.12,4.12,0,0,1-2.371-2.371,6.891,6.891,0,0,1-.431-2.323c-.05-1.108-.067-1.565-.071-3.673V17.125c0-2.111.021-2.567.071-3.677a6.888,6.888,0,0,1,.431-2.321,3.9,3.9,0,0,1,.933-1.438,3.849,3.849,0,0,1,1.438-.933,6.888,6.888,0,0,1,2.321-.431c1.111-.05,1.567-.067,3.677-.071h2.752c2.109,0,2.565.021,3.673.071a6.891,6.891,0,0,1,2.323.431,4.136,4.136,0,0,1,2.371,2.371,6.888,6.888,0,0,1,.431,2.321c.05,1.111.067,1.567.071,3.677Z" transform="translate(-6.001 -6.001)" fill="#b2b2b2"/>
</svg>
