<?xml version="1.0" encoding="utf-8"?>
<!-- Generator: Adobe Illustrator 25.1.0, SVG Export Plug-In . SVG Version: 6.00 Build 0)  -->
<svg version="1.1" id="Livello_1" xmlns="http://www.w3.org/2000/svg" xmlns:xlink="http://www.w3.org/1999/xlink" x="0px" y="0px"
	 viewBox="0 0 24.5 25" style="enable-background:new 0 0 24.5 25;" xml:space="preserve">
<style type="text/css">
	.st0{fill:#1A1A1A;}
</style>
<g>
	<path class="st0" d="M23.9,8.8C23.9,8.8,23.9,8.7,23.9,8.8c-0.1-0.3-0.3-0.4-0.6-0.3C23.1,8.6,23,8.8,23.1,9
		c0.4,1.1,0.6,2.2,0.6,3.3h-2.6c-0.2,0-0.4,0.2-0.4,0.4s0.2,0.4,0.4,0.4h2.6c0,0.7-0.1,1.5-0.3,2.2c-1.1,4.7-4.9,8-9.4,8.6
		c2.9-2.2,5-5.9,5.4-9.8c0-0.2-0.1-0.4-0.4-0.5c-0.2,0-0.4,0.1-0.5,0.4c-0.4,3.9-2.5,7.5-5.8,9.7V13.2h5.2c0.2,0,0.4-0.2,0.4-0.4
		s-0.2-0.4-0.4-0.4h-5.2V1.7c0.5,0.3,1,0.6,1.4,1c0,0,0,0,0,0c0.2,0.2,0.5,0.1,0.6-0.1c0.2-0.2,0.1-0.5-0.1-0.6
		c-0.2-0.2-0.5-0.4-0.7-0.6c0.3,0,0.7,0.1,1,0.2c0.2,0.1,0.5-0.1,0.5-0.3c0.1-0.2-0.1-0.5-0.3-0.5c-0.9-0.2-1.9-0.3-2.8-0.3
		c0,0,0,0,0,0c0,0,0,0,0,0c0,0,0,0,0,0C5.5,0.5,0,5.9,0,12.7c0,0,0,0,0,0c0,0,0,0,0,0C0,19.5,5.5,25,12.3,25c0,0,0,0,0,0
		c0,0,0,0,0,0l0,0h0c0,0,0,0,0,0c0,0,0,0,0,0c0,0,0,0,0,0l0,0c1.3,0,2.7-0.2,4-0.7C22.6,22.2,26.1,15.2,23.9,8.8z M11.8,23.8
		c-1.5-1-2.8-2.4-3.8-4c-1.3-2.1-1.9-4.4-2-6.7h5.8V23.8z M6,12.3c0.1-4.1,2.2-8.1,5.9-10.6v10.6H6z M10.6,1.4
		C7.5,3.9,5.3,8.1,5.1,12.3H0.9c0-0.7,0.1-1.5,0.3-2.2C2.3,5.4,6.1,2.1,10.6,1.4z M0.9,13.2h4.2c0.1,4.2,2.3,8.4,5.4,10.8
		c-0.3,0-0.6-0.1-0.9-0.2C4.6,22.6,1.1,18.1,0.9,13.2z"/>
	<path class="st0" d="M19.2,12.9c0.1,0.1,0.2,0.1,0.3,0.1c0.1,0,0.2,0,0.3-0.1c0.2-0.2,4-3.8,4-8.3c0-2.3-1.1-4.7-4.3-4.7
		s-4.3,2.4-4.3,4.7C15.2,9.1,19,12.8,19.2,12.9z M19.5,0.9L19.5,0.9c3.1,0,3.4,2.7,3.4,3.8c0,3.4-2.5,6.4-3.4,7.3
		c-0.9-0.9-3.4-4-3.4-7.3C16,3.5,16.4,0.9,19.5,0.9z"/>
	<path class="st0" d="M19.5,7.3c1.5,0,2.7-1.2,2.7-2.7c0-1.5-1.2-2.7-2.7-2.7c-1.5,0-2.7,1.2-2.7,2.7C16.8,6.1,18,7.3,19.5,7.3z
		 M19.5,2.8L19.5,2.8c1,0,1.8,0.8,1.8,1.8c0,1-0.8,1.8-1.8,1.8c-1,0-1.8-0.8-1.8-1.8C17.6,3.6,18.5,2.8,19.5,2.8z"/>
</g>
</svg>
