<svg xmlns="http://www.w3.org/2000/svg" width="23.802" height="19.803" viewBox="0 0 23.802 19.803">
  <g id="Group_12046" data-name="Group 12046" transform="translate(-2380.906 -684.648)">
    <g id="Group_12049" data-name="Group 12049" transform="translate(2380.906 684.648)">
      <path id="Path_23706" data-name="Path 23706" d="M2404.214,692.223a.484.484,0,0,1-.248-.067l-11.161-6.443-11.159,6.443a.494.494,0,1,1-.5-.855l11.408-6.587a.5.5,0,0,1,.493,0l11.408,6.587a.495.495,0,0,1-.247.923Z" transform="translate(-2380.906 -684.648)" fill="#1b1b1b"/>
    </g>
    <g id="Group_12050" data-name="Group 12050" transform="translate(2383.144 689.518)">
      <path id="Path_23707" data-name="Path 23707" d="M2400.867,702.041h-18.336a.5.5,0,0,1-.495-.495v-9.169a.493.493,0,0,1,.267-.437l9.167-4.776a.491.491,0,0,1,.457,0l9.169,4.776a.5.5,0,0,1,.266.438v9.169A.5.5,0,0,1,2400.867,702.041Zm-17.841-.99h17.348v-8.373l-8.676-4.518-8.672,4.518Z" transform="translate(-2382.036 -687.107)" fill="#1b1b1b"/>
    </g>
  </g>
</svg>
