<svg xmlns="http://www.w3.org/2000/svg" width="23.521" height="18.405" viewBox="0 0 23.521 18.405">
  <g id="Raggruppa_12011" data-name="Raggruppa 12011" transform="translate(-2120.268 -1477.716)">
    <g id="Raggruppa_12024" data-name="Raggruppa 12024" transform="translate(2120.268 1477.716)">
      <g id="Raggruppa_12011-2" data-name="Raggruppa 12011">
        <path id="Tracciato_23671" data-name="Tracciato 23671" d="M2143.412,1495.647h-22.768a.376.376,0,0,1-.376-.378V1477.62a.377.377,0,0,1,.376-.378h22.768a.378.378,0,0,1,.377.378v17.649A.378.378,0,0,1,2143.412,1495.647Zm-22.39-.755h22.012V1478h-22.012Z" transform="translate(-2120.268 -1477.242)" fill="#1b1b1b"/>
      </g>
      <g id="Raggruppa_12012" data-name="Raggruppa 12012" transform="translate(10.27 4.62)">
        <path id="Tracciato_23672" data-name="Tracciato 23672" d="M2129.542,1483.154h-2.1a.378.378,0,0,1-.378-.378v-2.1a.378.378,0,0,1,.378-.378h2.1a.377.377,0,0,1,.377.378v2.1A.378.378,0,0,1,2129.542,1483.154Zm-1.721-.755h1.343v-1.343h-1.343Z" transform="translate(-2127.066 -1480.3)" fill="#1b1b1b"/>
      </g>
      <g id="Raggruppa_12013" data-name="Raggruppa 12013" transform="translate(14.436 4.62)">
        <path id="Tracciato_23673" data-name="Tracciato 23673" d="M2132.3,1483.154h-2.1a.378.378,0,0,1-.378-.378v-2.1a.378.378,0,0,1,.378-.378h2.1a.378.378,0,0,1,.378.378v2.1A.378.378,0,0,1,2132.3,1483.154Zm-1.721-.755h1.343v-1.343h-1.343Z" transform="translate(-2129.823 -1480.3)" fill="#1b1b1b"/>
      </g>
      <g id="Raggruppa_12014" data-name="Raggruppa 12014" transform="translate(18.601 4.62)">
        <path id="Tracciato_23674" data-name="Tracciato 23674" d="M2135.056,1483.154h-2.1a.378.378,0,0,1-.378-.378v-2.1a.377.377,0,0,1,.378-.378h2.1a.378.378,0,0,1,.378.378v2.1A.378.378,0,0,1,2135.056,1483.154Zm-1.721-.755h1.343v-1.343h-1.343Z" transform="translate(-2132.58 -1480.3)" fill="#1b1b1b"/>
      </g>
      <g id="Raggruppa_12015" data-name="Raggruppa 12015" transform="translate(1.938 8.817)">
        <path id="Tracciato_23675" data-name="Tracciato 23675" d="M2124.029,1485.932h-2.1a.378.378,0,0,1-.378-.378v-2.1a.378.378,0,0,1,.378-.378h2.1a.378.378,0,0,1,.378.378v2.1A.378.378,0,0,1,2124.029,1485.932Zm-1.722-.755h1.344v-1.343h-1.344Z" transform="translate(-2121.551 -1483.078)" fill="#1b1b1b"/>
      </g>
      <g id="Raggruppa_12016" data-name="Raggruppa 12016" transform="translate(6.105 8.817)">
        <path id="Tracciato_23676" data-name="Tracciato 23676" d="M2126.785,1485.932h-2.1a.376.376,0,0,1-.376-.378v-2.1a.377.377,0,0,1,.376-.378h2.1a.378.378,0,0,1,.378.378v2.1A.378.378,0,0,1,2126.785,1485.932Zm-1.722-.755h1.345v-1.343h-1.345Z" transform="translate(-2124.309 -1483.078)" fill="#1b1b1b"/>
      </g>
      <g id="Raggruppa_12017" data-name="Raggruppa 12017" transform="translate(10.27 8.817)">
        <path id="Tracciato_23677" data-name="Tracciato 23677" d="M2129.542,1485.932h-2.1a.378.378,0,0,1-.378-.378v-2.1a.378.378,0,0,1,.378-.378h2.1a.378.378,0,0,1,.377.378v2.1A.378.378,0,0,1,2129.542,1485.932Zm-1.721-.755h1.343v-1.343h-1.343Z" transform="translate(-2127.066 -1483.078)" fill="#1b1b1b"/>
      </g>
      <g id="Raggruppa_12018" data-name="Raggruppa 12018" transform="translate(14.436 8.817)">
        <path id="Tracciato_23678" data-name="Tracciato 23678" d="M2132.3,1485.932h-2.1a.378.378,0,0,1-.378-.378v-2.1a.378.378,0,0,1,.378-.378h2.1a.378.378,0,0,1,.378.378v2.1A.378.378,0,0,1,2132.3,1485.932Zm-1.721-.755h1.343v-1.343h-1.343Z" transform="translate(-2129.823 -1483.078)" fill="#1b1b1b"/>
      </g>
      <g id="Raggruppa_12019" data-name="Raggruppa 12019" transform="translate(18.601 8.817)">
        <path id="Tracciato_23679" data-name="Tracciato 23679" d="M2135.056,1485.932h-2.1a.378.378,0,0,1-.378-.378v-2.1a.378.378,0,0,1,.378-.378h2.1a.378.378,0,0,1,.378.378v2.1A.378.378,0,0,1,2135.056,1485.932Zm-1.721-.755h1.343v-1.343h-1.343Z" transform="translate(-2132.58 -1483.078)" fill="#1b1b1b"/>
      </g>
      <g id="Raggruppa_12020" data-name="Raggruppa 12020" transform="translate(1.938 13.014)">
        <path id="Tracciato_23680" data-name="Tracciato 23680" d="M2124.029,1488.71h-2.1a.377.377,0,0,1-.378-.378v-2.1a.378.378,0,0,1,.378-.378h2.1a.378.378,0,0,1,.378.378v2.1A.377.377,0,0,1,2124.029,1488.71Zm-1.722-.754h1.344v-1.345h-1.344Z" transform="translate(-2121.551 -1485.856)" fill="#1b1b1b"/>
      </g>
      <g id="Raggruppa_12021" data-name="Raggruppa 12021" transform="translate(6.105 13.014)">
        <path id="Tracciato_23681" data-name="Tracciato 23681" d="M2126.785,1488.71h-2.1a.375.375,0,0,1-.376-.378v-2.1a.377.377,0,0,1,.376-.378h2.1a.378.378,0,0,1,.378.378v2.1A.377.377,0,0,1,2126.785,1488.71Zm-1.722-.754h1.345v-1.345h-1.345Z" transform="translate(-2124.309 -1485.856)" fill="#1b1b1b"/>
      </g>
      <g id="Raggruppa_12022" data-name="Raggruppa 12022" transform="translate(10.27 13.014)">
        <path id="Tracciato_23682" data-name="Tracciato 23682" d="M2129.542,1488.71h-2.1a.377.377,0,0,1-.378-.378v-2.1a.378.378,0,0,1,.378-.378h2.1a.378.378,0,0,1,.377.378v2.1A.377.377,0,0,1,2129.542,1488.71Zm-1.721-.754h1.343v-1.345h-1.343Z" transform="translate(-2127.066 -1485.856)" fill="#1b1b1b"/>
      </g>
      <g id="Raggruppa_12023" data-name="Raggruppa 12023" transform="translate(14.436 13.014)">
        <path id="Tracciato_23683" data-name="Tracciato 23683" d="M2132.3,1488.71h-2.1a.377.377,0,0,1-.378-.378v-2.1a.378.378,0,0,1,.378-.378h2.1a.378.378,0,0,1,.378.378v2.1A.377.377,0,0,1,2132.3,1488.71Zm-1.721-.754h1.343v-1.345h-1.343Z" transform="translate(-2129.823 -1485.856)" fill="#1b1b1b"/>
      </g>
    </g>
  </g>
</svg>
