<svg xmlns="http://www.w3.org/2000/svg" width="21.972" height="22.927" viewBox="0 0 21.972 22.927">
  <path id="Tracciato_24167" data-name="Tracciato 24167" d="M11.464,10.795a15.016,15.016,0,0,1-2.2-.382v.764a7.452,7.452,0,0,0,2.1.382c2.006,0,2.866-.86,2.866-1.911,0-1.528-2.1-1.911-3.917-2.006l.1-1.72h3.535V5.159h-4.3L9.457,8.311c1.337,0,3.917.191,3.917,1.337C13.374,10.317,12.8,10.795,11.464,10.795ZM18.151,0H0V.955H18.151ZM3.821,10.7v.764h4.3V10.7H6.4V5.159H5.827l-2.006.478V6.4l1.72-.382V10.7Zm17.2-4.968V21.494a.431.431,0,0,1-.478.478H6.209a.431.431,0,0,1-.478-.478V19.106h7.362l5.056-5.056V2.866H17.2V13.374H12.419v4.776H1.433a.479.479,0,0,1-.478-.478V2.866H0V17.673a1.435,1.435,0,0,0,1.433,1.433H4.776v2.388a1.386,1.386,0,0,0,1.433,1.433H20.539a1.386,1.386,0,0,0,1.433-1.433V5.732Zm-7.642,8.6H16.52l-3.146,3.146Z" fill="#161615"/>
</svg>
