<?xml version="1.0" encoding="utf-8"?>
<!-- Generator: Adobe Illustrator 25.1.0, SVG Export Plug-In . SVG Version: 6.00 Build 0)  -->
<svg version="1.1" id="Livello_1" xmlns="http://www.w3.org/2000/svg" xmlns:xlink="http://www.w3.org/1999/xlink" x="0px" y="0px"
	 viewBox="0 0 23 23" style="enable-background:new 0 0 23 23;" xml:space="preserve">
<g id="Tracciato_24165">
	<path d="M14,23H9v-3.4c-0.5-0.2-1-0.4-1.5-0.6l-2.4,2.4l-3.5-3.5L4,15.4c-0.2-0.5-0.4-1-0.6-1.5H0V9h3.4C3.6,8.5,3.8,8,4,7.6
		L1.6,5.1l3.5-3.5L7.6,4C8,3.8,8.5,3.6,9,3.4V0H14v3.4c0.5,0.2,1,0.4,1.5,0.6l2.4-2.4l3.5,3.5L19,7.6c0.2,0.5,0.4,1,0.6,1.5H23v5
		h-3.4c-0.2,0.5-0.4,1-0.6,1.5l2.4,2.4l-3.5,3.4L15.4,19c-0.5,0.2-1,0.4-1.5,0.6V23z M10,22H13v-3.2l0.4-0.1c0.7-0.2,1.4-0.5,2-0.8
		l0.3-0.2l2.2,2.2l2.1-2l-2.2-2.2l0.2-0.3c0.3-0.6,0.6-1.3,0.8-2l0.1-0.4H22v-3h-3.2l-0.1-0.4c-0.2-0.7-0.5-1.4-0.8-2l-0.2-0.3
		L20,5.1L17.9,3l-2.2,2.2l-0.3-0.2c-0.6-0.3-1.3-0.6-2-0.8L13,4.2V1H10v3.2L9.7,4.3C9,4.5,8.3,4.8,7.7,5.1L7.4,5.3L5.1,3L3,5.1
		l2.2,2.2L5.1,7.7C4.8,8.3,4.5,9,4.3,9.7L4.2,10H1V13h3.2l0.1,0.4c0.2,0.7,0.5,1.4,0.8,2l0.2,0.3L3,17.9L5.1,20l2.2-2.2l0.3,0.2
		c0.6,0.3,1.3,0.6,2,0.8l0.4,0.1V22z M11.5,16.3c-2.6,0-4.8-2.1-4.8-4.8c0-2.6,2.1-4.8,4.8-4.8h0c2.6,0,4.7,2.2,4.8,4.8
		C16.3,14.1,14.1,16.3,11.5,16.3z M11.5,7.7c-2.1,0-3.8,1.7-3.8,3.8c0,2.1,1.7,3.8,3.8,3.8s3.8-1.7,3.8-3.8
		C15.3,9.4,13.6,7.7,11.5,7.7z"/>
</g>
</svg>
