<?xml version="1.0" encoding="utf-8"?>
<!-- Generator: Adobe Illustrator 25.1.0, SVG Export Plug-In . SVG Version: 6.00 Build 0)  -->
<svg version="1.1" id="Livello_1" xmlns="http://www.w3.org/2000/svg" xmlns:xlink="http://www.w3.org/1999/xlink" x="0px" y="0px"
	 viewBox="0 0 20.3 16.3" style="enable-background:new 0 0 20.3 16.3;" xml:space="preserve">
<g id="Raggruppa_12716" transform="translate(-29.5 -54.131)">
	<g id="Linea_1">
		<path d="M48.8,56.1H30.5c-0.6,0-1-0.4-1-1s0.4-1,1-1h18.3c0.6,0,1,0.4,1,1S49.4,56.1,48.8,56.1z"/>
	</g>
	<g id="Linea_2">
		<path d="M48.8,63.3H30.5c-0.6,0-1-0.4-1-1s0.4-1,1-1h18.3c0.6,0,1,0.4,1,1S49.4,63.3,48.8,63.3z"/>
	</g>
	<g id="Linea_3">
		<path d="M42.2,70.5H30.5c-0.6,0-1-0.4-1-1s0.4-1,1-1h11.7c0.6,0,1,0.4,1,1S42.7,70.5,42.2,70.5z"/>
	</g>
</g>
</svg>
