<svg xmlns="http://www.w3.org/2000/svg" width="22" height="19.603" viewBox="0 0 22 19.603">
  <path id="Tracciato_24168" data-name="Tracciato 24168" d="M21,6.05V4H20V17.08L3.413,20.008,3.5,21H23V8.5A2.5,2.5,0,0,0,21,6.05ZM22,20H9.21L21,17.92V7.085A1.5,1.5,0,0,1,22,8.5Zm-3-8.293V2.9a1.506,1.506,0,0,0-.048-.375,1.5,1.5,0,0,0-1.827-1.077L1,5.613V17.695a1.536,1.536,0,0,0,.051.39A1.5,1.5,0,0,0,2.89,19.144l11.869-3.2Zm-4,2.586V12h2.293Zm-1,.824L2.63,18.179A.5.5,0,0,1,2,17.695V6.387L17.375,2.414a.5.5,0,0,1,.609.361A.461.461,0,0,1,18,2.9V11H14Z" transform="translate(-1 -1.397)" fill="#161615"/>
</svg>
