<?xml version="1.0" encoding="utf-8"?>
<!-- Generator: Adobe Illustrator 25.1.0, SVG Export Plug-In . SVG Version: 6.00 Build 0)  -->
<svg version="1.1" id="Livello_1" xmlns="http://www.w3.org/2000/svg" xmlns:xlink="http://www.w3.org/1999/xlink" x="0px" y="0px"
	 viewBox="0 0 23 23" style="enable-background:new 0 0 23 23;" xml:space="preserve">
<style type="text/css">
	.st0{display:none;}
	.st1{display:inline;}
</style>
<g class="st0">
	<path class="st1" d="M23,12v-0.5c0-1.1-0.1-1.8-0.3-2.4l-0.1-0.6h-0.1c-0.2-0.4-0.3-0.6-0.4-0.7l-1-0.8h1.7v-1h-2.6
		c-0.4-0.5-0.7-1.1-1-1.6c-0.5-1-1.3-1.6-2.5-1.7L6.1,3C5,3.1,4.1,3.7,3.6,4.7c-0.3,0.6-0.6,1.1-1,1.6H0.2v1h1.6L1,8
		C0.8,8,0.6,8.2,0.5,8.7H0.4L0.3,9.2C0.2,9.7,0.1,10.5,0,11.5V12l0,0c0,0.1,0,0.2,0,0.4V17c0.1,0.8,0.8,1.3,1.5,1.3l0,0h3.3v-1.9
		h13.4v1.9h3.3c0.8,0,1.4-0.6,1.5-1.4v-4.6C23,12.2,23,12.1,23,12L23,12z M21.5,17.4h-2.3v-1.9H3.8v1.9H1.5c-0.3,0-0.6-0.2-0.6-0.5
		v-4.6v-0.1c0.4,0.1,1.1,0.3,1.9,0.4c0.3,0.1,0.6,0.1,0.9,0.1c0.3,0,0.6-0.1,0.8-0.3c0.3-0.3,0.2-0.8,0.1-1.2l-0.1-0.3
		C4.4,10,3.6,9.2,2.8,9.1c-0.5-0.1-1-0.3-1.2-0.4c-0.1,0-0.1,0-0.1,0l1.4-1.1V7.6C3.5,6.8,4.1,6,4.5,5.1C4.8,4.5,5.5,4,6.1,4h10.7
		c0.7,0,1.3,0.5,1.6,1.1c0.4,1,1,1.8,1.6,2.6l1.4,1.1c0,0,0,0,0.1,0.1c-0.3,0.1-0.8,0.2-1.2,0.4c-0.9,0.1-1.6,0.8-1.7,1.6l-0.1,0.4
		c-0.1,0.5-0.2,1,0.1,1.2c0.2,0.2,0.4,0.3,0.8,0.3c0.2,0,0.5,0,0.9-0.1c0.9-0.2,1.4-0.3,1.9-0.4v0.1v4.5
		C22,17.2,21.8,17.4,21.5,17.4z M1.2,9.8c0.3,0.1,0.8,0.2,1.2,0.4h0.1c0.5,0,0.9,0.4,1,1l0.1,0.4c0,0.1,0.1,0.3,0.1,0.4
		c-0.1,0-0.3,0-0.6-0.1c-1-0.2-1.6-0.4-2-0.5L1.2,9.8z M22,11.3c-0.4,0.1-1.1,0.3-2,0.5c-0.3,0.1-0.5,0.1-0.6,0.1
		c0-0.1,0.1-0.2,0.1-0.4l0.1-0.4c0.1-0.5,0.5-0.9,1-0.9h0.1c0.5-0.1,1-0.3,1.2-0.4L22,11.3z"/>
	<path class="st1" d="M7.7,10.7l-2,1.3l1.9,2.5h8l1.8-2.5l-1.9-1.3H7.7z M15,13.6H8L7,12.2l1-0.6H15l0.9,0.6L15,13.6z"/>
</g>
<g>
	<path d="M23,11.6v-0.5c0-1.1-0.1-1.8-0.3-2.4l-0.1-0.6h-0.1c-0.2-0.4-0.3-0.6-0.4-0.7l-1-0.8h1.7v-1h-2.6c-0.4-0.5-0.7-1.1-1-1.6
		c-0.5-1-1.3-1.6-2.5-1.7L6.1,2.6C5,2.7,4.1,3.3,3.6,4.3C3.4,4.9,3.1,5.4,2.7,6H0.2v1h1.6L1,7.6c-0.2,0-0.4,0.2-0.5,0.7H0.4L0.3,8.8
		C0.2,9.3,0.1,10.1,0,11.1v0.5l0,0c0,0.1,0,0.2,0,0.4v4.6c0.1,0.8,0.8,1.3,1.5,1.3l0,0h3.3V16h13.4v1.9h3.3c0.8,0,1.4-0.6,1.5-1.4
		v-4.6C23,11.8,23,11.7,23,11.6L23,11.6z M21.5,17h-2.3v-1.9H3.8V17H1.5C1.2,17,1,16.8,1,16.5v-4.6v-0.1c0.4,0.1,1.1,0.3,1.9,0.4
		c0.3,0.1,0.6,0.1,0.9,0.1c0.3,0,0.6-0.1,0.8-0.3c0.3-0.3,0.2-0.8,0.1-1.2l-0.1-0.3C4.4,9.6,3.6,8.8,2.8,8.7c-0.5-0.1-1-0.3-1.2-0.4
		c-0.1,0-0.1,0-0.1,0l1.4-1.1V7.2c0.7-0.8,1.2-1.6,1.6-2.5c0.3-0.7,1-1.1,1.6-1.1h10.7c0.7,0,1.3,0.5,1.6,1.1c0.4,1,1,1.8,1.6,2.6
		l1.4,1.1c0,0,0,0,0.1,0.1c-0.3,0.1-0.8,0.2-1.2,0.4c-0.9,0.1-1.6,0.8-1.7,1.6l-0.1,0.4c-0.1,0.5-0.2,1,0.1,1.2
		c0.2,0.2,0.4,0.3,0.8,0.3c0.2,0,0.5,0,0.9-0.1c0.9-0.2,1.4-0.3,1.9-0.4V12v4.5C22,16.8,21.8,17,21.5,17z M1.2,9.4
		c0.3,0.1,0.8,0.2,1.2,0.4h0.1c0.5,0,0.9,0.4,1,1l0.1,0.4c0,0.1,0.1,0.3,0.1,0.4c-0.1,0-0.3,0-0.6-0.1c-1-0.2-1.6-0.4-2-0.5L1.2,9.4
		z M22,10.8c-0.4,0.1-1.1,0.3-2,0.5c-0.3,0.1-0.5,0.1-0.6,0.1c0-0.1,0.1-0.2,0.1-0.4l0.1-0.4c0.1-0.5,0.5-0.9,1-0.9h0.1
		c0.5-0.1,1-0.3,1.2-0.4L22,10.8z"/>
	<path d="M7.7,10.3l-2,1.3l1.9,2.5h8l1.8-2.5l-1.9-1.3H7.7z M15,13.1H8L7,11.8l1-0.6H15l0.9,0.6L15,13.1z"/>
</g>
</svg>
